<!DOCTYPE svg PUBLIC "-//W3C//DTD SVG 20010904//EN" "http://www.w3.org/TR/2001/REC-SVG-20010904/DTD/svg10.dtd">
<svg version="1.0" xmlns="http://www.w3.org/2000/svg" width="552px" height="232px" viewBox="0 0 5520 2320" preserveAspectRatio="xMidYMid meet">
<g id="layer101" fill="#010101" stroke="none">
 <path d="M0 1160 l0 -1160 2760 0 2760 0 0 1160 0 1160 -2760 0 -2760 0 0 -1160z"/>
 </g>
<g id="layer102" fill="#585858" stroke="none">
 <path d="M0 1160 l0 -1160 2760 0 2760 0 0 1160 0 1160 -2760 0 -2760 0 0 -1160z m3520 579 c61 -18 139 -99 183 -192 27 -57 129 -307 177 -432 4 -11 12 -31 18 -45 7 -18 167 -420 229 -577 4 -10 -12 -13 -61 -13 -71 0 -85 10 -105 76 -5 16 -21 61 -36 99 -14 39 -32 88 -40 110 -7 22 -23 65 -35 95 -12 30 -28 73 -35 95 -8 22 -26 72 -40 110 -14 39 -32 90 -39 115 -15 50 -13 52 -50 -65 -14 -44 -44 -132 -66 -195 -78 -218 -111 -315 -127 -365 -8 -27 -22 -56 -31 -63 -21 -16 -142 -16 -142 1 0 6 21 64 46 127 39 97 67 168 144 365 59 152 124 314 132 331 13 27 0 68 -54 181 -49 104 -87 136 -161 137 -29 0 -60 -3 -69 -8 -16 -7 -18 -2 -18 57 l0 66 43 3 c61 4 86 2 137 -13z m-2822 -393 c28 -8 67 -23 85 -35 29 -17 35 -29 41 -67 12 -87 11 -88 -34 -59 -80 50 -202 82 -273 70 -140 -24 -218 -109 -243 -262 l-7 -43 310 0 310 0 -4 -82 c-3 -77 -18 -158 -42 -221 -15 -38 -98 -125 -141 -147 -71 -36 -214 -43 -297 -15 -47 16 -113 63 -166 120 -122 129 -137 443 -30 603 33 48 94 102 152 132 60 31 232 34 339 6z m1628 8 c39 -11 69 -30 111 -70 32 -30 59 -54 60 -54 2 0 3 27 3 60 l0 60 70 0 70 0 0 -267 c0 -397 -15 -483 -92 -548 -60 -51 -109 -65 -222 -65 -104 0 -155 11 -243 52 l-43 20 0 69 c0 76 -1 75 55 34 54 -40 158 -68 236 -63 63 3 72 6 107 41 40 39 66 105 60 153 l-3 29 -155 22 c-197 28 -232 38 -291 84 -66 53 -92 111 -91 208 0 63 12 99 49 153 33 49 63 67 136 83 83 18 119 18 183 -1z m764 -379 l0 -375 100 0 100 0 0 -60 0 -60 -100 0 -100 0 0 -100 c0 -145 31 -199 122 -215 26 -5 51 -2 78 9 l40 16 0 -64 c0 -72 -5 -76 -90 -76 -159 1 -260 88 -280 243 -5 40 -10 98 -10 129 l0 57 -67 3 -68 3 -3 58 -3 57 71 0 70 0 0 375 0 375 70 0 70 0 0 -375z"/>
 <path d="M508 832 l-228 -2 0 -23 c1 -29 34 -102 66 -144 54 -71 184 -103 267 -68 49 22 92 64 111 108 16 39 28 125 18 129 -4 2 -109 2 -234 0z"/>
 <path d="M2198 1245 c-88 -28 -124 -103 -93 -195 25 -74 73 -98 238 -120 45 -6 100 -13 121 -16 l39 -6 -5 90 c-5 84 -8 94 -44 149 -62 93 -156 129 -256 98z"/>
 </g>
<g id="layer103" fill="#ff8613" stroke="none">
 <path d="M0 1160 l0 -1160 2760 0 2760 0 0 1160 0 1160 -2760 0 -2760 0 0 -1160z m2274 1011 c9 -10 29 -52 45 -92 46 -120 46 -119 18 -119 -20 0 -26 7 -37 45 -7 25 -16 45 -20 45 -4 0 -13 -20 -19 -45 -10 -38 -15 -45 -36 -45 -14 0 -25 4 -25 9 0 4 13 40 29 78 30 74 28 103 -9 103 -13 0 -20 7 -20 20 0 27 50 27 74 1z m1438 -11 c14 -18 18 -40 18 -110 l0 -88 -57 0 c-74 0 -103 23 -103 80 0 61 62 102 98 66 9 -9 12 -8 12 4 0 25 -27 41 -65 36 -27 -3 -35 0 -35 12 0 27 12 32 64 27 36 -3 55 -11 68 -27z m1598 -35 c-22 -24 -22 -25 -5 -61 24 -50 14 -101 -25 -136 -58 -53 -145 -29 -170 47 -25 75 25 145 101 145 26 0 42 5 45 15 4 9 19 15 42 15 l35 0 -23 -25z m-4710 -115 l0 -110 -25 0 -25 0 0 110 0 110 25 0 25 0 0 -110z m92 53 c3 -50 6 -58 23 -58 17 0 20 8 23 58 3 53 5 57 27 57 24 0 25 -3 25 -64 0 -45 -5 -69 -16 -80 -18 -19 -55 -21 -72 -4 -9 9 -12 9 -12 0 0 -7 -11 -12 -25 -12 -25 0 -25 1 -25 80 0 78 1 80 25 80 22 0 24 -4 27 -57z m178 13 c0 -57 8 -76 30 -76 22 0 30 19 30 76 0 40 2 44 25 44 23 0 25 -3 25 -49 0 -91 -26 -124 -81 -104 -16 7 -29 7 -29 2 0 -5 -11 -9 -25 -9 -25 0 -25 1 -25 80 0 79 0 80 25 80 23 0 25 -4 25 -44z m275 19 c33 -32 33 -78 0 -110 -51 -52 -145 -16 -145 55 0 44 39 80 85 80 25 0 44 -8 60 -25z m169 -46 c32 -86 32 -89 2 -89 -21 0 -26 7 -36 51 -14 56 -21 55 -39 -8 -10 -36 -16 -43 -37 -43 -17 0 -24 5 -22 13 3 6 15 42 27 80 21 61 25 67 51 67 25 0 30 -6 54 -71z m114 59 c9 -9 12 -9 12 0 0 7 11 12 25 12 24 0 25 -3 25 -58 0 -73 -18 -102 -65 -102 -44 0 -65 9 -65 27 0 10 10 13 36 11 23 -2 39 2 41 10 3 7 -4 12 -19 12 -33 0 -68 27 -68 54 0 28 18 46 45 46 12 0 26 -5 33 -12z m210 -13 c2 -17 -3 -20 -30 -20 -31 0 -33 -2 -33 -35 0 -33 2 -35 33 -35 27 0 32 -4 32 -22 0 -19 -5 -23 -34 -23 -51 0 -86 33 -86 81 0 53 28 81 78 77 28 -2 38 -8 40 -23z m82 -55 c0 -79 0 -80 -25 -80 -25 0 -25 1 -25 80 0 79 0 80 25 80 25 0 25 -1 25 -80z m155 74 c25 -10 47 -62 40 -95 -13 -57 -88 -78 -139 -38 -56 44 -20 139 55 139 15 0 35 -3 44 -6z m115 -38 c0 -57 8 -76 30 -76 22 0 30 19 30 76 0 40 2 44 25 44 23 0 25 -3 25 -49 0 -91 -26 -124 -81 -104 -16 7 -29 7 -29 2 0 -5 -11 -9 -25 -9 -25 0 -25 1 -25 80 0 79 0 80 25 80 23 0 25 -4 25 -44z m570 -46 l0 -90 30 0 c23 0 30 -4 30 -20 0 -18 -7 -20 -85 -20 -78 0 -85 2 -85 20 0 16 7 20 30 20 l30 0 0 90 c0 89 0 90 25 90 25 0 25 -1 25 -90z m174 84 c9 -3 16 -14 16 -23 0 -12 -10 -16 -42 -16 -24 0 -43 -5 -45 -12 -3 -9 10 -13 46 -13 43 0 51 -3 51 -19 0 -10 -9 -30 -21 -45 -42 -53 -129 -18 -129 52 0 63 61 100 124 76z m164 -19 c2 -17 -3 -20 -30 -20 -31 0 -33 -2 -33 -35 0 -33 2 -35 33 -35 27 0 32 -4 32 -22 0 -19 -5 -23 -34 -23 -51 0 -86 33 -86 81 0 53 28 81 78 77 28 -2 38 -8 40 -23z m84 -32 c3 -50 6 -58 23 -58 17 0 20 8 23 58 3 53 5 57 27 57 24 0 25 -3 25 -64 0 -45 -5 -69 -16 -80 -18 -19 -55 -21 -72 -4 -9 9 -12 9 -12 0 0 -7 -11 -12 -25 -12 -25 0 -25 1 -25 80 0 78 1 80 25 80 22 0 24 -4 27 -57z m253 51 c25 -10 47 -62 40 -95 -13 -57 -88 -78 -139 -38 -37 29 -37 89 0 118 26 21 67 27 99 15z m115 -109 l0 -115 -25 0 -25 0 0 115 0 115 25 0 25 0 0 -115z m175 90 c52 -51 15 -135 -60 -135 -46 0 -85 36 -85 80 0 44 39 80 85 80 25 0 44 -8 60 -25z m295 -55 c0 -79 0 -80 -25 -80 -25 0 -25 1 -25 80 0 79 0 80 25 80 25 0 25 -1 25 -80z m170 41 c0 -46 -16 -102 -32 -113 -15 -9 -60 -10 -82 -2 -9 3 -16 15 -16 25 0 16 4 17 25 9 26 -10 55 -4 55 11 0 5 -13 9 -30 9 -32 0 -70 30 -70 54 0 30 28 44 90 44 l60 0 0 -37z m238 14 c2 -18 -2 -20 -38 -17 -32 3 -40 1 -40 -12 0 -13 11 -16 51 -16 51 0 51 0 44 -27 -23 -95 -145 -79 -145 19 0 54 28 80 83 76 33 -2 43 -7 45 -23z m94 -32 c3 -50 6 -58 23 -58 17 0 20 8 23 58 3 53 5 57 27 57 24 0 25 -3 25 -64 0 -45 -5 -69 -16 -80 -18 -19 -55 -21 -72 -4 -9 9 -12 9 -12 0 0 -7 -11 -12 -25 -12 -25 0 -25 1 -25 80 0 78 1 80 25 80 22 0 24 -4 27 -57z m278 12 l0 -45 40 0 40 0 0 45 c0 41 2 45 25 45 l25 0 0 -110 0 -110 -25 0 c-23 0 -25 4 -25 45 l0 45 -40 0 -40 0 0 -45 c0 -43 -1 -45 -30 -45 l-30 0 0 110 0 110 30 0 c29 0 30 -2 30 -45z m297 21 c24 -21 26 -27 18 -52 -6 -17 -27 -38 -50 -51 -53 -30 -52 -48 3 -47 38 1 43 -2 40 -20 -2 -17 -11 -22 -46 -24 -57 -4 -92 18 -92 58 0 29 31 63 71 75 10 4 19 15 19 26 0 22 -38 26 -71 9 -16 -9 -19 -7 -19 14 0 28 11 34 62 35 25 1 46 -7 65 -23z m183 4 c0 -17 -7 -20 -40 -20 -36 0 -40 -2 -40 -25 0 -22 4 -25 35 -25 28 0 35 -4 35 -20 0 -16 -7 -20 -35 -20 -31 0 -35 -3 -35 -25 0 -22 4 -25 40 -25 33 0 40 -3 40 -20 0 -18 -7 -20 -65 -20 l-65 0 0 110 0 110 65 0 c58 0 65 -2 65 -20z m-3361 -174 c9 -10 8 -16 -4 -26 -17 -14 -45 -7 -45 13 0 29 30 37 49 13z m142 -12 l24 -26 -24 4 c-28 4 -64 48 -39 48 8 0 25 -12 39 -26z m1959 1 c22 -24 23 -25 3 -25 -11 0 -30 11 -43 25 -22 24 -23 25 -3 25 11 0 30 -11 43 -25z m-280 -180 c16 -8 46 -30 67 -48 74 -65 76 -70 407 -905 64 -161 116 -295 116 -298 0 -3 -32 -4 -71 -2 l-72 3 -48 130 c-27 72 -62 166 -78 210 -16 44 -44 118 -61 165 -17 47 -42 117 -55 155 -12 39 -25 63 -28 55 -2 -8 -9 -31 -15 -50 -5 -19 -31 -93 -57 -165 -26 -71 -53 -148 -60 -170 -29 -86 -115 -329 -119 -332 -2 -2 -37 -3 -78 -1 l-75 3 133 340 c74 187 150 382 169 433 l35 92 -42 102 c-64 156 -130 207 -228 178 -19 -5 -36 -10 -37 -10 -2 0 -3 29 -3 64 0 59 2 65 23 70 39 8 146 -3 177 -19z m-2815 -396 c101 -37 105 -42 105 -115 0 -59 -9 -79 -25 -54 -4 6 -25 20 -47 31 -131 67 -289 65 -380 -5 -45 -34 -88 -119 -95 -190 l-6 -56 307 0 306 0 0 -44 c0 -209 -71 -351 -209 -414 -75 -35 -207 -37 -291 -4 -101 40 -196 144 -234 257 -23 69 -31 196 -17 285 26 169 121 283 271 327 69 20 240 10 315 -18z m1606 15 c41 -12 67 -29 108 -70 30 -30 56 -54 58 -54 1 0 3 27 3 60 l0 60 71 0 71 0 -4 -337 c-3 -327 -4 -340 -26 -389 -57 -127 -180 -179 -364 -154 -51 7 -107 22 -145 40 l-63 29 0 71 0 71 43 -26 c62 -39 104 -56 167 -67 109 -21 195 13 225 87 15 33 30 125 22 125 -42 0 -308 46 -356 62 -124 40 -184 125 -184 258 0 111 43 182 136 224 65 30 157 34 238 10z m759 -379 l0 -375 100 0 100 0 0 -60 0 -60 -101 0 -102 0 5 -107 c5 -124 20 -162 72 -187 38 -18 102 -21 140 -6 l26 10 0 -65 0 -64 -35 -7 c-54 -10 -146 0 -189 21 -53 25 -104 79 -129 134 -15 33 -21 75 -25 158 l-5 113 -73 0 -74 0 0 60 0 60 75 0 75 0 0 375 0 375 70 0 70 0 0 -375z"/>
 <path d="M3624 2066 c-3 -8 -4 -25 -2 -38 2 -17 9 -23 28 -23 22 0 25 4 25 35 0 29 -4 36 -23 38 -13 2 -24 -3 -28 -12z"/>
 <path d="M5182 2064 c-16 -11 -22 -25 -22 -54 0 -39 25 -70 57 -70 41 0 60 92 25 123 -23 21 -32 21 -60 1z"/>
 <path d="M1054 2065 c-4 -8 -3 -26 0 -40 5 -18 13 -25 32 -25 28 0 39 19 30 55 -5 18 -13 25 -32 25 -13 0 -27 -7 -30 -15z"/>
 <path d="M1397 2074 c-10 -11 3 -24 24 -24 10 0 19 7 19 15 0 15 -31 21 -43 9z"/>
 <path d="M1804 2066 c-12 -32 0 -61 28 -64 29 -4 44 22 33 58 -7 24 -53 28 -61 6z"/>
 <path d="M2660 2011 c0 -12 29 -23 41 -15 18 10 9 24 -16 24 -14 0 -25 -4 -25 -9z"/>
 <path d="M3164 2066 c-12 -32 0 -61 28 -64 29 -4 44 22 33 58 -7 24 -53 28 -61 6z"/>
 <path d="M3434 2065 c-4 -8 -3 -26 0 -40 5 -18 13 -25 32 -25 28 0 39 19 30 55 -5 18 -13 25 -32 25 -13 0 -27 -7 -30 -15z"/>
 <path d="M3890 2066 c0 -11 9 -16 26 -16 31 0 28 23 -4 28 -15 2 -22 -2 -22 -12z"/>
 <path d="M4153 2008 c2 -7 12 -13 22 -13 10 0 20 6 23 13 2 7 -6 12 -23 12 -17 0 -25 -5 -22 -12z"/>
 <path d="M280 824 c0 -3 7 -31 16 -61 21 -71 99 -156 159 -172 143 -39 264 40 281 184 l7 55 -232 0 c-127 0 -231 -3 -231 -6z"/>
 <path d="M2185 1241 c-36 -15 -74 -62 -81 -98 -10 -52 2 -112 27 -139 29 -31 118 -59 239 -74 52 -6 103 -14 114 -17 17 -5 18 1 15 74 -5 100 -42 180 -106 226 -36 25 -53 30 -115 33 -40 2 -82 0 -93 -5z"/>
 </g>
<g id="layer104" fill="#ffffff" stroke="none">
 <path d="M0 1160 l0 -1160 2760 0 2760 0 0 1160 0 1160 -2760 0 -2760 0 0 -1160z m2274 1011 c9 -10 29 -52 45 -92 46 -120 46 -119 18 -119 -20 0 -26 7 -37 45 -7 25 -16 45 -20 45 -4 0 -13 -20 -19 -45 -10 -38 -15 -45 -36 -45 -14 0 -25 4 -25 9 0 4 13 40 29 78 30 74 28 103 -9 103 -13 0 -20 7 -20 20 0 27 50 27 74 1z m1438 -11 c14 -18 18 -40 18 -110 l0 -88 -57 0 c-74 0 -103 23 -103 80 0 61 62 102 98 66 9 -9 12 -8 12 4 0 25 -27 41 -65 36 -27 -3 -35 0 -35 12 0 27 12 32 64 27 36 -3 55 -11 68 -27z m1598 -35 c-22 -24 -22 -25 -5 -61 24 -50 14 -101 -25 -136 -58 -53 -145 -29 -170 47 -25 75 25 145 101 145 26 0 42 5 45 15 4 9 19 15 42 15 l35 0 -23 -25z m-4710 -115 l0 -110 -25 0 -25 0 0 110 0 110 25 0 25 0 0 -110z m92 53 c3 -50 6 -58 23 -58 17 0 20 8 23 58 3 53 5 57 27 57 24 0 25 -3 25 -64 0 -45 -5 -69 -16 -80 -18 -19 -55 -21 -72 -4 -9 9 -12 9 -12 0 0 -7 -11 -12 -25 -12 -25 0 -25 1 -25 80 0 78 1 80 25 80 22 0 24 -4 27 -57z m178 13 c0 -57 8 -76 30 -76 22 0 30 19 30 76 0 40 2 44 25 44 23 0 25 -3 25 -49 0 -91 -26 -124 -81 -104 -16 7 -29 7 -29 2 0 -5 -11 -9 -25 -9 -25 0 -25 1 -25 80 0 79 0 80 25 80 23 0 25 -4 25 -44z m275 19 c33 -32 33 -78 0 -110 -51 -52 -145 -16 -145 55 0 44 39 80 85 80 25 0 44 -8 60 -25z m169 -46 c32 -86 32 -89 2 -89 -21 0 -26 7 -36 51 -14 56 -21 55 -39 -8 -10 -36 -16 -43 -37 -43 -17 0 -24 5 -22 13 3 6 15 42 27 80 21 61 25 67 51 67 25 0 30 -6 54 -71z m114 59 c9 -9 12 -9 12 0 0 7 11 12 25 12 24 0 25 -3 25 -58 0 -73 -18 -102 -65 -102 -44 0 -65 9 -65 27 0 10 10 13 36 11 23 -2 39 2 41 10 3 7 -4 12 -19 12 -33 0 -68 27 -68 54 0 28 18 46 45 46 12 0 26 -5 33 -12z m210 -13 c2 -17 -3 -20 -30 -20 -31 0 -33 -2 -33 -35 0 -33 2 -35 33 -35 27 0 32 -4 32 -22 0 -19 -5 -23 -34 -23 -51 0 -86 33 -86 81 0 53 28 81 78 77 28 -2 38 -8 40 -23z m82 -55 c0 -79 0 -80 -25 -80 -25 0 -25 1 -25 80 0 79 0 80 25 80 25 0 25 -1 25 -80z m155 74 c25 -10 47 -62 40 -95 -13 -57 -88 -78 -139 -38 -56 44 -20 139 55 139 15 0 35 -3 44 -6z m115 -38 c0 -57 8 -76 30 -76 22 0 30 19 30 76 0 40 2 44 25 44 23 0 25 -3 25 -49 0 -91 -26 -124 -81 -104 -16 7 -29 7 -29 2 0 -5 -11 -9 -25 -9 -25 0 -25 1 -25 80 0 79 0 80 25 80 23 0 25 -4 25 -44z m570 -46 l0 -90 30 0 c23 0 30 -4 30 -20 0 -18 -7 -20 -85 -20 -78 0 -85 2 -85 20 0 16 7 20 30 20 l30 0 0 90 c0 89 0 90 25 90 25 0 25 -1 25 -90z m174 84 c9 -3 16 -14 16 -23 0 -12 -10 -16 -42 -16 -24 0 -43 -5 -45 -12 -3 -9 10 -13 46 -13 43 0 51 -3 51 -19 0 -10 -9 -30 -21 -45 -42 -53 -129 -18 -129 52 0 63 61 100 124 76z m164 -19 c2 -17 -3 -20 -30 -20 -31 0 -33 -2 -33 -35 0 -33 2 -35 33 -35 27 0 32 -4 32 -22 0 -19 -5 -23 -34 -23 -51 0 -86 33 -86 81 0 53 28 81 78 77 28 -2 38 -8 40 -23z m84 -32 c3 -50 6 -58 23 -58 17 0 20 8 23 58 3 53 5 57 27 57 24 0 25 -3 25 -64 0 -45 -5 -69 -16 -80 -18 -19 -55 -21 -72 -4 -9 9 -12 9 -12 0 0 -7 -11 -12 -25 -12 -25 0 -25 1 -25 80 0 78 1 80 25 80 22 0 24 -4 27 -57z m253 51 c25 -10 47 -62 40 -95 -13 -57 -88 -78 -139 -38 -37 29 -37 89 0 118 26 21 67 27 99 15z m115 -109 l0 -115 -25 0 -25 0 0 115 0 115 25 0 25 0 0 -115z m175 90 c52 -51 15 -135 -60 -135 -46 0 -85 36 -85 80 0 44 39 80 85 80 25 0 44 -8 60 -25z m295 -55 c0 -79 0 -80 -25 -80 -25 0 -25 1 -25 80 0 79 0 80 25 80 25 0 25 -1 25 -80z m170 41 c0 -46 -16 -102 -32 -113 -15 -9 -60 -10 -82 -2 -9 3 -16 15 -16 25 0 16 4 17 25 9 26 -10 55 -4 55 11 0 5 -13 9 -30 9 -32 0 -70 30 -70 54 0 30 28 44 90 44 l60 0 0 -37z m238 14 c2 -18 -2 -20 -38 -17 -32 3 -40 1 -40 -12 0 -13 11 -16 51 -16 51 0 51 0 44 -27 -23 -95 -145 -79 -145 19 0 54 28 80 83 76 33 -2 43 -7 45 -23z m94 -32 c3 -50 6 -58 23 -58 17 0 20 8 23 58 3 53 5 57 27 57 24 0 25 -3 25 -64 0 -45 -5 -69 -16 -80 -18 -19 -55 -21 -72 -4 -9 9 -12 9 -12 0 0 -7 -11 -12 -25 -12 -25 0 -25 1 -25 80 0 78 1 80 25 80 22 0 24 -4 27 -57z m278 12 l0 -45 40 0 40 0 0 45 c0 41 2 45 25 45 l25 0 0 -110 0 -110 -25 0 c-23 0 -25 4 -25 45 l0 45 -40 0 -40 0 0 -45 c0 -43 -1 -45 -30 -45 l-30 0 0 110 0 110 30 0 c29 0 30 -2 30 -45z m297 21 c24 -21 26 -27 18 -52 -6 -17 -27 -38 -50 -51 -53 -30 -52 -48 3 -47 38 1 43 -2 40 -20 -2 -17 -11 -22 -46 -24 -57 -4 -92 18 -92 58 0 29 31 63 71 75 10 4 19 15 19 26 0 22 -38 26 -71 9 -16 -9 -19 -7 -19 14 0 28 11 34 62 35 25 1 46 -7 65 -23z m183 4 c0 -17 -7 -20 -40 -20 -36 0 -40 -2 -40 -25 0 -22 4 -25 35 -25 28 0 35 -4 35 -20 0 -16 -7 -20 -35 -20 -31 0 -35 -3 -35 -25 0 -22 4 -25 40 -25 33 0 40 -3 40 -20 0 -18 -7 -20 -65 -20 l-65 0 0 110 0 110 65 0 c58 0 65 -2 65 -20z m-3361 -174 c9 -10 8 -16 -4 -26 -17 -14 -45 -7 -45 13 0 29 30 37 49 13z m142 -12 l24 -26 -24 4 c-28 4 -64 48 -39 48 8 0 25 -12 39 -26z m1959 1 c22 -24 23 -25 3 -25 -11 0 -30 11 -43 25 -22 24 -23 25 -3 25 11 0 30 -11 43 -25z m-280 -180 c16 -8 46 -30 67 -48 74 -65 76 -70 407 -905 64 -161 116 -295 116 -298 0 -3 -32 -4 -71 -2 l-72 3 -48 130 c-27 72 -62 166 -78 210 -16 44 -44 118 -61 165 -17 47 -42 117 -55 155 -12 39 -25 63 -28 55 -2 -8 -9 -31 -15 -50 -5 -19 -31 -93 -57 -165 -26 -71 -53 -148 -60 -170 -29 -86 -115 -329 -119 -332 -2 -2 -37 -3 -78 -1 l-75 3 133 340 c74 187 150 382 169 433 l35 92 -42 102 c-64 156 -130 207 -228 178 -19 -5 -36 -10 -37 -10 -2 0 -3 29 -3 64 0 59 2 65 23 70 39 8 146 -3 177 -19z m-2815 -396 c101 -37 105 -42 105 -115 0 -59 -9 -79 -25 -54 -4 6 -25 20 -47 31 -131 67 -289 65 -380 -5 -45 -34 -88 -119 -95 -190 l-6 -56 307 0 306 0 0 -44 c0 -209 -71 -351 -209 -414 -75 -35 -207 -37 -291 -4 -101 40 -196 144 -234 257 -23 69 -31 196 -17 285 26 169 121 283 271 327 69 20 240 10 315 -18z m765 20 c131 -21 230 -87 276 -184 33 -70 33 -180 0 -250 -43 -92 -110 -146 -316 -255 -158 -84 -198 -113 -221 -165 -46 -101 0 -201 111 -240 87 -31 265 -18 350 25 22 11 42 20 45 20 3 0 5 -34 5 -76 l0 -75 -37 -16 c-50 -21 -267 -30 -344 -14 -77 16 -169 62 -214 107 -95 95 -111 253 -38 361 43 63 110 112 264 193 225 118 270 162 270 264 0 120 -68 176 -226 184 -106 5 -215 -19 -302 -69 l-53 -29 0 84 0 84 63 21 c117 39 247 50 367 30z m841 -5 c41 -12 67 -29 108 -70 30 -30 56 -54 58 -54 1 0 3 27 3 60 l0 60 71 0 71 0 -4 -337 c-3 -327 -4 -340 -26 -389 -57 -127 -180 -179 -364 -154 -51 7 -107 22 -145 40 l-63 29 0 71 0 71 43 -26 c62 -39 104 -56 167 -67 109 -21 195 13 225 87 15 33 30 125 22 125 -42 0 -308 46 -356 62 -124 40 -184 125 -184 258 0 111 43 182 136 224 65 30 157 34 238 10z m759 -379 l0 -375 100 0 100 0 0 -60 0 -60 -101 0 -102 0 5 -107 c5 -124 20 -162 72 -187 38 -18 102 -21 140 -6 l26 10 0 -65 0 -64 -35 -7 c-54 -10 -146 0 -189 21 -53 25 -104 79 -129 134 -15 33 -21 75 -25 158 l-5 113 -73 0 -74 0 0 60 0 60 75 0 75 0 0 375 0 375 70 0 70 0 0 -375z"/>
 <path d="M3624 2066 c-3 -8 -4 -25 -2 -38 2 -17 9 -23 28 -23 22 0 25 4 25 35 0 29 -4 36 -23 38 -13 2 -24 -3 -28 -12z"/>
 <path d="M5182 2064 c-16 -11 -22 -25 -22 -54 0 -39 25 -70 57 -70 41 0 60 92 25 123 -23 21 -32 21 -60 1z"/>
 <path d="M1054 2065 c-4 -8 -3 -26 0 -40 5 -18 13 -25 32 -25 28 0 39 19 30 55 -5 18 -13 25 -32 25 -13 0 -27 -7 -30 -15z"/>
 <path d="M1397 2074 c-10 -11 3 -24 24 -24 10 0 19 7 19 15 0 15 -31 21 -43 9z"/>
 <path d="M1804 2066 c-12 -32 0 -61 28 -64 29 -4 44 22 33 58 -7 24 -53 28 -61 6z"/>
 <path d="M2660 2011 c0 -12 29 -23 41 -15 18 10 9 24 -16 24 -14 0 -25 -4 -25 -9z"/>
 <path d="M3164 2066 c-12 -32 0 -61 28 -64 29 -4 44 22 33 58 -7 24 -53 28 -61 6z"/>
 <path d="M3434 2065 c-4 -8 -3 -26 0 -40 5 -18 13 -25 32 -25 28 0 39 19 30 55 -5 18 -13 25 -32 25 -13 0 -27 -7 -30 -15z"/>
 <path d="M3890 2066 c0 -11 9 -16 26 -16 31 0 28 23 -4 28 -15 2 -22 -2 -22 -12z"/>
 <path d="M4153 2008 c2 -7 12 -13 22 -13 10 0 20 6 23 13 2 7 -6 12 -23 12 -17 0 -25 -5 -22 -12z"/>
 <path d="M280 824 c0 -3 7 -31 16 -61 21 -71 99 -156 159 -172 143 -39 264 40 281 184 l7 55 -232 0 c-127 0 -231 -3 -231 -6z"/>
 <path d="M2185 1241 c-36 -15 -74 -62 -81 -98 -10 -52 2 -112 27 -139 29 -31 118 -59 239 -74 52 -6 103 -14 114 -17 17 -5 18 1 15 74 -5 100 -42 180 -106 226 -36 25 -53 30 -115 33 -40 2 -82 0 -93 -5z"/>
 </g>

</svg>